<svg xmlns="http://www.w3.org/2000/svg" width="46" height="46" fill="none" style=""><rect id="backgroundrect" width="100%" height="100%" x="0" y="0" fill="none" stroke="none" class="" style=""/>




<g class="currentLayer" style=""><title>Layer 1</title><path d="M23.525382578372955,11.846446514129639 C23.525382578372955,18.05964651412964 18.488582578372956,23.09644651412964 12.275382578372955,23.09644651412964 H1.0253825783729553 V11.846446514129639 C1.0253825783729553,5.633246514129638 6.062182578372955,0.5964465141296387 12.275382578372955,0.5964465141296387 C18.488582578372956,0.5964465141296387 23.525382578372955,5.633246514129638 23.525382578372955,11.846446514129639 z" fill="#17CF97" id="svg_1" class=""/><path d="M23.525382578372955,34.34644651412964 C23.525382578372955,28.133246514129638 28.562182578372955,23.09644651412964 34.775382578372955,23.09644651412964 H46.025382578372955 V34.34644651412964 C46.025382578372955,40.55964651412964 40.98838257837295,45.59644651412964 34.775382578372955,45.59644651412964 C28.562182578372955,45.59644651412964 23.525382578372955,40.55964651412964 23.525382578372955,34.34644651412964 z" fill="#17CF97" id="svg_2" class=""/><path d="M1.0253825783729553,34.34644651412964 C1.0253825783729553,40.55964651412964 6.062182578372955,45.59644651412964 12.275382578372955,45.59644651412964 H23.525382578372955 V34.34644651412964 C23.525382578372955,28.133246514129638 18.488582578372956,23.09644651412964 12.275382578372955,23.09644651412964 C6.062182578372955,23.09644651412964 1.0253825783729553,28.133246514129638 1.0253825783729553,34.34644651412964 z" fill="#17CF97" id="svg_3" class=""/><path d="M46.025382578372955,11.846446514129639 C46.025382578372955,5.633246514129638 40.98838257837295,0.5964465141296387 34.775382578372955,0.5964465141296387 H23.525382578372955 V11.846446514129639 C23.525382578372955,18.05964651412964 28.562182578372955,23.09644651412964 34.775382578372955,23.09644651412964 C40.98838257837295,23.09644651412964 46.025382578372955,18.05964651412964 46.025382578372955,11.846446514129639 z" fill="#17CF97" id="svg_4" class=""/></g></svg>